<mxfile host="app.diagrams.net" modified="2021-01-10T06:06:40.206Z" agent="5.0 (Macintosh; Intel Mac OS X 10_13_6) AppleWebKit/605.1.15 (KHTML, like Gecko) Version/13.1.2 Safari/605.1.15" etag="xe9BntLlp4IffcDoLBJc" version="14.1.9" type="github">
  <diagram id="Nx58a4AAOmA9eQM4UVhp" name="Page-1">
    <mxGraphModel dx="2775" dy="2518" grid="1" gridSize="10" guides="1" tooltips="1" connect="1" arrows="1" fold="1" page="1" pageScale="1" pageWidth="850" pageHeight="1100" math="0" shadow="0">
      <root>
        <mxCell id="0" />
        <mxCell id="1" parent="0" />
        <mxCell id="LWxjox-2GX2AtobKSZnQ-2" value="Actor" style="shape=umlActor;verticalLabelPosition=bottom;verticalAlign=top;html=1;outlineConnect=0;" parent="1" vertex="1">
          <mxGeometry x="-50" y="150" width="130" height="260" as="geometry" />
        </mxCell>
        <mxCell id="LWxjox-2GX2AtobKSZnQ-4" value="Register" style="ellipse;whiteSpace=wrap;html=1;" parent="1" vertex="1">
          <mxGeometry x="210" y="-210" width="270" height="60" as="geometry" />
        </mxCell>
        <mxCell id="LWxjox-2GX2AtobKSZnQ-5" value="" style="endArrow=classic;html=1;" parent="1" edge="1">
          <mxGeometry width="50" height="50" relative="1" as="geometry">
            <mxPoint x="80" y="240" as="sourcePoint" />
            <mxPoint x="210" y="-110" as="targetPoint" />
          </mxGeometry>
        </mxCell>
        <mxCell id="LWxjox-2GX2AtobKSZnQ-6" value="Choose subscription plan" style="ellipse;whiteSpace=wrap;html=1;" parent="1" vertex="1">
          <mxGeometry x="210" y="-140" width="250" height="60" as="geometry" />
        </mxCell>
        <mxCell id="LWxjox-2GX2AtobKSZnQ-10" value="extends" style="endArrow=classic;html=1;entryX=0;entryY=0.5;entryDx=0;entryDy=0;exitX=1;exitY=0.5;exitDx=0;exitDy=0;" parent="1" edge="1" target="LWxjox-2GX2AtobKSZnQ-11" source="LWxjox-2GX2AtobKSZnQ-6">
          <mxGeometry width="50" height="50" relative="1" as="geometry">
            <mxPoint x="500" y="-155" as="sourcePoint" />
            <mxPoint x="570" y="-205" as="targetPoint" />
          </mxGeometry>
        </mxCell>
        <mxCell id="LWxjox-2GX2AtobKSZnQ-11" value="Choose monthly subscription" style="ellipse;whiteSpace=wrap;html=1;" parent="1" vertex="1">
          <mxGeometry x="630" y="-270" width="200" height="40" as="geometry" />
        </mxCell>
        <mxCell id="LWxjox-2GX2AtobKSZnQ-13" value="Choose yearly subscription" style="ellipse;whiteSpace=wrap;html=1;" parent="1" vertex="1">
          <mxGeometry x="650" y="-190" width="180" height="40" as="geometry" />
        </mxCell>
        <mxCell id="LWxjox-2GX2AtobKSZnQ-14" value="" style="endArrow=classic;html=1;entryX=0;entryY=0.5;entryDx=0;entryDy=0;" parent="1" target="LWxjox-2GX2AtobKSZnQ-15" edge="1">
          <mxGeometry width="50" height="50" relative="1" as="geometry">
            <mxPoint x="80" y="240" as="sourcePoint" />
            <mxPoint x="260" y="220" as="targetPoint" />
          </mxGeometry>
        </mxCell>
        <mxCell id="LWxjox-2GX2AtobKSZnQ-15" value="Log into personal account" style="ellipse;whiteSpace=wrap;html=1;" parent="1" vertex="1">
          <mxGeometry x="210" y="-70" width="260" height="60" as="geometry" />
        </mxCell>
        <mxCell id="LWxjox-2GX2AtobKSZnQ-17" value="" style="endArrow=classic;html=1;entryX=0.018;entryY=0.333;entryDx=0;entryDy=0;entryPerimeter=0;" parent="1" target="LWxjox-2GX2AtobKSZnQ-18" edge="1">
          <mxGeometry width="50" height="50" relative="1" as="geometry">
            <mxPoint x="80" y="240" as="sourcePoint" />
            <mxPoint x="230" y="280" as="targetPoint" />
          </mxGeometry>
        </mxCell>
        <mxCell id="LWxjox-2GX2AtobKSZnQ-18" value="Manage personal account" style="ellipse;whiteSpace=wrap;html=1;" parent="1" vertex="1">
          <mxGeometry x="205" y="10" width="280" height="60" as="geometry" />
        </mxCell>
        <mxCell id="LWxjox-2GX2AtobKSZnQ-24" value="Change the user name" style="ellipse;whiteSpace=wrap;html=1;" parent="1" vertex="1">
          <mxGeometry x="570" width="190" height="50" as="geometry" />
        </mxCell>
        <mxCell id="LWxjox-2GX2AtobKSZnQ-25" value="Change subscription" style="ellipse;whiteSpace=wrap;html=1;" parent="1" vertex="1">
          <mxGeometry x="570" y="60" width="200" height="50" as="geometry" />
        </mxCell>
        <mxCell id="LWxjox-2GX2AtobKSZnQ-27" value="Manage profile picture" style="ellipse;whiteSpace=wrap;html=1;" parent="1" vertex="1">
          <mxGeometry x="580" y="-65" width="170" height="50" as="geometry" />
        </mxCell>
        <mxCell id="LWxjox-2GX2AtobKSZnQ-32" value="" style="endArrow=classic;html=1;entryX=0;entryY=0.5;entryDx=0;entryDy=0;" parent="1" edge="1" target="LWxjox-2GX2AtobKSZnQ-33">
          <mxGeometry width="50" height="50" relative="1" as="geometry">
            <mxPoint x="80" y="240" as="sourcePoint" />
            <mxPoint x="250" y="380" as="targetPoint" />
          </mxGeometry>
        </mxCell>
        <mxCell id="LWxjox-2GX2AtobKSZnQ-33" value="Search for recipes" style="ellipse;whiteSpace=wrap;html=1;" parent="1" vertex="1">
          <mxGeometry x="197.5" y="90" width="275" height="60" as="geometry" />
        </mxCell>
        <mxCell id="pzs2fOWfZ-EyLYKR72HC-1" value="Search by keyword" style="ellipse;whiteSpace=wrap;html=1;" vertex="1" parent="1">
          <mxGeometry x="560" y="130" width="210" height="40" as="geometry" />
        </mxCell>
        <mxCell id="pzs2fOWfZ-EyLYKR72HC-3" value="Search &amp;nbsp;by group of keywords" style="ellipse;whiteSpace=wrap;html=1;" vertex="1" parent="1">
          <mxGeometry x="565" y="190" width="200" height="40" as="geometry" />
        </mxCell>
        <mxCell id="pzs2fOWfZ-EyLYKR72HC-4" value="includes" style="endArrow=classic;html=1;entryX=0;entryY=0.5;entryDx=0;entryDy=0;" edge="1" parent="1" target="pzs2fOWfZ-EyLYKR72HC-5">
          <mxGeometry width="50" height="50" relative="1" as="geometry">
            <mxPoint x="470" y="120" as="sourcePoint" />
            <mxPoint x="580" y="450" as="targetPoint" />
          </mxGeometry>
        </mxCell>
        <mxCell id="pzs2fOWfZ-EyLYKR72HC-5" value="View recipes list" style="ellipse;whiteSpace=wrap;html=1;" vertex="1" parent="1">
          <mxGeometry x="570" y="250" width="190" height="40" as="geometry" />
        </mxCell>
        <mxCell id="pzs2fOWfZ-EyLYKR72HC-6" value="includes" style="endArrow=classic;html=1;exitX=1;exitY=0.5;exitDx=0;exitDy=0;" edge="1" parent="1" source="pzs2fOWfZ-EyLYKR72HC-5" target="pzs2fOWfZ-EyLYKR72HC-7">
          <mxGeometry width="50" height="50" relative="1" as="geometry">
            <mxPoint x="780" y="460" as="sourcePoint" />
            <mxPoint x="830" y="410" as="targetPoint" />
          </mxGeometry>
        </mxCell>
        <mxCell id="pzs2fOWfZ-EyLYKR72HC-7" value="View tutorial videos" style="ellipse;whiteSpace=wrap;html=1;" vertex="1" parent="1">
          <mxGeometry x="960" y="260" width="200" height="40" as="geometry" />
        </mxCell>
        <mxCell id="pzs2fOWfZ-EyLYKR72HC-8" value="" style="endArrow=classic;html=1;entryX=0;entryY=0.5;entryDx=0;entryDy=0;exitX=1;exitY=0.3333333333333333;exitDx=0;exitDy=0;exitPerimeter=0;" edge="1" parent="1" source="LWxjox-2GX2AtobKSZnQ-2" target="pzs2fOWfZ-EyLYKR72HC-30">
          <mxGeometry width="50" height="50" relative="1" as="geometry">
            <mxPoint x="90" y="260" as="sourcePoint" />
            <mxPoint x="190" y="520" as="targetPoint" />
            <Array as="points">
              <mxPoint x="140" y="390" />
            </Array>
          </mxGeometry>
        </mxCell>
        <mxCell id="pzs2fOWfZ-EyLYKR72HC-10" value="includes" style="endArrow=classic;html=1;" edge="1" parent="1">
          <mxGeometry width="50" height="50" relative="1" as="geometry">
            <mxPoint x="460" y="-110" as="sourcePoint" />
            <mxPoint x="660" y="-170" as="targetPoint" />
          </mxGeometry>
        </mxCell>
        <mxCell id="pzs2fOWfZ-EyLYKR72HC-13" value="" style="endArrow=classic;html=1;entryX=0;entryY=0.5;entryDx=0;entryDy=0;" edge="1" parent="1" target="LWxjox-2GX2AtobKSZnQ-27">
          <mxGeometry width="50" height="50" relative="1" as="geometry">
            <mxPoint x="480" y="50" as="sourcePoint" />
            <mxPoint x="610" y="-110" as="targetPoint" />
          </mxGeometry>
        </mxCell>
        <mxCell id="pzs2fOWfZ-EyLYKR72HC-14" value="includes" style="edgeLabel;html=1;align=center;verticalAlign=middle;resizable=0;points=[];" vertex="1" connectable="0" parent="pzs2fOWfZ-EyLYKR72HC-13">
          <mxGeometry x="0.0077" y="-3" relative="1" as="geometry">
            <mxPoint as="offset" />
          </mxGeometry>
        </mxCell>
        <mxCell id="pzs2fOWfZ-EyLYKR72HC-15" value="includes" style="endArrow=classic;html=1;entryX=0;entryY=0.5;entryDx=0;entryDy=0;" edge="1" parent="1" target="LWxjox-2GX2AtobKSZnQ-24">
          <mxGeometry width="50" height="50" relative="1" as="geometry">
            <mxPoint x="480" y="50" as="sourcePoint" />
            <mxPoint x="660" y="-40" as="targetPoint" />
          </mxGeometry>
        </mxCell>
        <mxCell id="pzs2fOWfZ-EyLYKR72HC-16" value="includes" style="endArrow=classic;html=1;entryX=0;entryY=0.5;entryDx=0;entryDy=0;" edge="1" parent="1" target="LWxjox-2GX2AtobKSZnQ-25">
          <mxGeometry width="50" height="50" relative="1" as="geometry">
            <mxPoint x="485" y="50" as="sourcePoint" />
            <mxPoint x="665" y="20" as="targetPoint" />
          </mxGeometry>
        </mxCell>
        <mxCell id="pzs2fOWfZ-EyLYKR72HC-17" value="uses" style="endArrow=classic;html=1;entryX=0;entryY=0.5;entryDx=0;entryDy=0;exitX=1;exitY=0.5;exitDx=0;exitDy=0;" edge="1" parent="1" source="LWxjox-2GX2AtobKSZnQ-33" target="pzs2fOWfZ-EyLYKR72HC-3">
          <mxGeometry width="50" height="50" relative="1" as="geometry">
            <mxPoint x="470" y="140" as="sourcePoint" />
            <mxPoint x="20" y="80" as="targetPoint" />
          </mxGeometry>
        </mxCell>
        <mxCell id="pzs2fOWfZ-EyLYKR72HC-18" value="uses" style="endArrow=classic;html=1;entryX=0;entryY=0;entryDx=0;entryDy=0;exitX=1;exitY=0.5;exitDx=0;exitDy=0;" edge="1" parent="1" source="LWxjox-2GX2AtobKSZnQ-33" target="pzs2fOWfZ-EyLYKR72HC-1">
          <mxGeometry width="50" height="50" relative="1" as="geometry">
            <mxPoint x="480" y="120" as="sourcePoint" />
            <mxPoint x="580" y="-20" as="targetPoint" />
          </mxGeometry>
        </mxCell>
        <mxCell id="pzs2fOWfZ-EyLYKR72HC-19" value="" style="endArrow=classic;html=1;entryX=0;entryY=0.5;entryDx=0;entryDy=0;" edge="1" parent="1" target="pzs2fOWfZ-EyLYKR72HC-20">
          <mxGeometry width="50" height="50" relative="1" as="geometry">
            <mxPoint x="80" y="240" as="sourcePoint" />
            <mxPoint x="190" y="180" as="targetPoint" />
          </mxGeometry>
        </mxCell>
        <mxCell id="pzs2fOWfZ-EyLYKR72HC-20" value="Add recipes" style="ellipse;whiteSpace=wrap;html=1;" vertex="1" parent="1">
          <mxGeometry x="200" y="160" width="280" height="60" as="geometry" />
        </mxCell>
        <mxCell id="pzs2fOWfZ-EyLYKR72HC-21" value="" style="endArrow=classic;html=1;" edge="1" parent="1">
          <mxGeometry width="50" height="50" relative="1" as="geometry">
            <mxPoint x="80" y="240" as="sourcePoint" />
            <mxPoint x="230" y="350" as="targetPoint" />
          </mxGeometry>
        </mxCell>
        <mxCell id="pzs2fOWfZ-EyLYKR72HC-22" value="" style="endArrow=classic;html=1;entryX=0;entryY=0.5;entryDx=0;entryDy=0;" edge="1" parent="1" target="pzs2fOWfZ-EyLYKR72HC-23">
          <mxGeometry width="50" height="50" relative="1" as="geometry">
            <mxPoint x="80" y="240" as="sourcePoint" />
            <mxPoint x="180" y="250" as="targetPoint" />
          </mxGeometry>
        </mxCell>
        <mxCell id="pzs2fOWfZ-EyLYKR72HC-23" value="Print recipe" style="ellipse;whiteSpace=wrap;html=1;" vertex="1" parent="1">
          <mxGeometry x="190" y="230" width="300" height="60" as="geometry" />
        </mxCell>
        <mxCell id="pzs2fOWfZ-EyLYKR72HC-24" value="" style="endArrow=classic;html=1;" edge="1" parent="1">
          <mxGeometry width="50" height="50" relative="1" as="geometry">
            <mxPoint x="80" y="240" as="sourcePoint" />
            <mxPoint x="240" y="520" as="targetPoint" />
          </mxGeometry>
        </mxCell>
        <mxCell id="pzs2fOWfZ-EyLYKR72HC-25" value="Rate recipe" style="ellipse;whiteSpace=wrap;html=1;" vertex="1" parent="1">
          <mxGeometry x="195" y="300" width="280" height="60" as="geometry" />
        </mxCell>
        <mxCell id="pzs2fOWfZ-EyLYKR72HC-26" value="" style="endArrow=classic;html=1;entryX=0;entryY=0.5;entryDx=0;entryDy=0;" edge="1" parent="1" target="pzs2fOWfZ-EyLYKR72HC-27">
          <mxGeometry width="50" height="50" relative="1" as="geometry">
            <mxPoint x="80" y="240" as="sourcePoint" />
            <mxPoint x="210" y="410" as="targetPoint" />
          </mxGeometry>
        </mxCell>
        <mxCell id="pzs2fOWfZ-EyLYKR72HC-27" value="Comment on a recipe" style="ellipse;whiteSpace=wrap;html=1;" vertex="1" parent="1">
          <mxGeometry x="212.5" y="370" width="260" height="60" as="geometry" />
        </mxCell>
        <mxCell id="pzs2fOWfZ-EyLYKR72HC-28" value="Give feedback" style="ellipse;whiteSpace=wrap;html=1;" vertex="1" parent="1">
          <mxGeometry x="202.5" y="440" width="280" height="60" as="geometry" />
        </mxCell>
        <mxCell id="pzs2fOWfZ-EyLYKR72HC-29" value="uses" style="endArrow=classic;html=1;" edge="1" parent="1">
          <mxGeometry width="50" height="50" relative="1" as="geometry">
            <mxPoint x="480" y="530" as="sourcePoint" />
            <mxPoint x="562.5" y="360" as="targetPoint" />
          </mxGeometry>
        </mxCell>
        <mxCell id="pzs2fOWfZ-EyLYKR72HC-30" value="Save recipe" style="ellipse;whiteSpace=wrap;html=1;" vertex="1" parent="1">
          <mxGeometry x="197.5" y="510" width="300" height="60" as="geometry" />
        </mxCell>
        <mxCell id="pzs2fOWfZ-EyLYKR72HC-31" value="Saving another user&quot;s recipe" style="ellipse;whiteSpace=wrap;html=1;" vertex="1" parent="1">
          <mxGeometry x="565" y="340" width="200" height="40" as="geometry" />
        </mxCell>
        <mxCell id="pzs2fOWfZ-EyLYKR72HC-37" value="Save &amp;nbsp;customised recipe" style="ellipse;whiteSpace=wrap;html=1;" vertex="1" parent="1">
          <mxGeometry x="570" y="460" width="190" height="40" as="geometry" />
        </mxCell>
        <mxCell id="pzs2fOWfZ-EyLYKR72HC-39" value="" style="endArrow=classic;html=1;" edge="1" parent="1">
          <mxGeometry width="50" height="50" relative="1" as="geometry">
            <mxPoint x="480" y="530" as="sourcePoint" />
            <mxPoint x="580" y="430" as="targetPoint" />
          </mxGeometry>
        </mxCell>
        <mxCell id="pzs2fOWfZ-EyLYKR72HC-42" value="uses" style="edgeLabel;html=1;align=center;verticalAlign=middle;resizable=0;points=[];" vertex="1" connectable="0" parent="pzs2fOWfZ-EyLYKR72HC-39">
          <mxGeometry x="0.005" y="-10" relative="1" as="geometry">
            <mxPoint x="1" y="-1" as="offset" />
          </mxGeometry>
        </mxCell>
        <mxCell id="pzs2fOWfZ-EyLYKR72HC-41" value="uses" style="endArrow=classic;html=1;" edge="1" parent="1">
          <mxGeometry width="50" height="50" relative="1" as="geometry">
            <mxPoint x="480" y="527" as="sourcePoint" />
            <mxPoint x="640" y="500" as="targetPoint" />
          </mxGeometry>
        </mxCell>
        <mxCell id="pzs2fOWfZ-EyLYKR72HC-44" value="Saving a personal recipe" style="ellipse;whiteSpace=wrap;html=1;" vertex="1" parent="1">
          <mxGeometry x="570" y="400" width="190" height="40" as="geometry" />
        </mxCell>
        <mxCell id="pzs2fOWfZ-EyLYKR72HC-45" value="" style="endArrow=classic;html=1;entryX=0;entryY=0.5;entryDx=0;entryDy=0;" edge="1" parent="1" target="pzs2fOWfZ-EyLYKR72HC-47">
          <mxGeometry width="50" height="50" relative="1" as="geometry">
            <mxPoint x="80" y="240" as="sourcePoint" />
            <mxPoint x="190" y="590" as="targetPoint" />
          </mxGeometry>
        </mxCell>
        <mxCell id="pzs2fOWfZ-EyLYKR72HC-47" value="Customise another user&quot;s recipe" style="ellipse;whiteSpace=wrap;html=1;" vertex="1" parent="1">
          <mxGeometry x="195" y="580" width="290" height="60" as="geometry" />
        </mxCell>
        <mxCell id="pzs2fOWfZ-EyLYKR72HC-48" value="uses" style="endArrow=classic;html=1;exitX=1;exitY=0.5;exitDx=0;exitDy=0;" edge="1" parent="1" source="pzs2fOWfZ-EyLYKR72HC-47">
          <mxGeometry width="50" height="50" relative="1" as="geometry">
            <mxPoint x="490" y="600" as="sourcePoint" />
            <mxPoint x="590" y="540" as="targetPoint" />
          </mxGeometry>
        </mxCell>
        <mxCell id="pzs2fOWfZ-EyLYKR72HC-49" value="Change ingredients on recipe" style="ellipse;whiteSpace=wrap;html=1;" vertex="1" parent="1">
          <mxGeometry x="590" y="570" width="170" height="40" as="geometry" />
        </mxCell>
        <mxCell id="pzs2fOWfZ-EyLYKR72HC-50" value="Addi Personal notes on recipe" style="ellipse;whiteSpace=wrap;html=1;" vertex="1" parent="1">
          <mxGeometry x="590" y="520" width="170" height="40" as="geometry" />
        </mxCell>
        <mxCell id="pzs2fOWfZ-EyLYKR72HC-52" value="uses" style="endArrow=classic;html=1;entryX=0;entryY=0.5;entryDx=0;entryDy=0;exitX=1;exitY=0.5;exitDx=0;exitDy=0;" edge="1" parent="1" source="pzs2fOWfZ-EyLYKR72HC-47" target="pzs2fOWfZ-EyLYKR72HC-49">
          <mxGeometry width="50" height="50" relative="1" as="geometry">
            <mxPoint x="460" y="700" as="sourcePoint" />
            <mxPoint x="560" y="600" as="targetPoint" />
          </mxGeometry>
        </mxCell>
        <mxCell id="pzs2fOWfZ-EyLYKR72HC-54" value="" style="endArrow=classic;html=1;entryX=0;entryY=0.5;entryDx=0;entryDy=0;" edge="1" parent="1" target="pzs2fOWfZ-EyLYKR72HC-55">
          <mxGeometry width="50" height="50" relative="1" as="geometry">
            <mxPoint x="80" y="240" as="sourcePoint" />
            <mxPoint x="200" y="690" as="targetPoint" />
          </mxGeometry>
        </mxCell>
        <mxCell id="pzs2fOWfZ-EyLYKR72HC-55" value="Uplad a &amp;nbsp;recipe" style="ellipse;whiteSpace=wrap;html=1;" vertex="1" parent="1">
          <mxGeometry x="205" y="660" width="285" height="60" as="geometry" />
        </mxCell>
        <mxCell id="pzs2fOWfZ-EyLYKR72HC-56" value="" style="endArrow=classic;html=1;exitX=1;exitY=0.5;exitDx=0;exitDy=0;" edge="1" parent="1" source="pzs2fOWfZ-EyLYKR72HC-55">
          <mxGeometry width="50" height="50" relative="1" as="geometry">
            <mxPoint x="550" y="230" as="sourcePoint" />
            <mxPoint x="580" y="660" as="targetPoint" />
          </mxGeometry>
        </mxCell>
        <mxCell id="pzs2fOWfZ-EyLYKR72HC-63" value="Text" style="edgeLabel;html=1;align=center;verticalAlign=middle;resizable=0;points=[];" vertex="1" connectable="0" parent="pzs2fOWfZ-EyLYKR72HC-56">
          <mxGeometry x="0.2033" y="5" relative="1" as="geometry">
            <mxPoint as="offset" />
          </mxGeometry>
        </mxCell>
        <mxCell id="pzs2fOWfZ-EyLYKR72HC-58" value="Upload tutorial video" style="ellipse;whiteSpace=wrap;html=1;" vertex="1" parent="1">
          <mxGeometry x="580" y="630" width="190" height="50" as="geometry" />
        </mxCell>
        <mxCell id="pzs2fOWfZ-EyLYKR72HC-59" value="Delete uploaded recipe" style="ellipse;whiteSpace=wrap;html=1;" vertex="1" parent="1">
          <mxGeometry x="590" y="690" width="175" height="50" as="geometry" />
        </mxCell>
        <mxCell id="pzs2fOWfZ-EyLYKR72HC-60" value="extends" style="endArrow=classic;html=1;entryX=1;entryY=0.5;entryDx=0;entryDy=0;" edge="1" parent="1" target="pzs2fOWfZ-EyLYKR72HC-55">
          <mxGeometry width="50" height="50" relative="1" as="geometry">
            <mxPoint x="590" y="720" as="sourcePoint" />
            <mxPoint x="600" y="180" as="targetPoint" />
          </mxGeometry>
        </mxCell>
        <mxCell id="pzs2fOWfZ-EyLYKR72HC-65" value="" style="endArrow=classic;html=1;entryX=0;entryY=0.5;entryDx=0;entryDy=0;" edge="1" parent="1" target="LWxjox-2GX2AtobKSZnQ-4">
          <mxGeometry width="50" height="50" relative="1" as="geometry">
            <mxPoint x="80" y="240" as="sourcePoint" />
            <mxPoint x="600" y="180" as="targetPoint" />
          </mxGeometry>
        </mxCell>
      </root>
    </mxGraphModel>
  </diagram>
</mxfile>
